# xmcd
#
# Track frame offsets:
#	150
#	22170
#	31612
#	43910
#	61940
#	76542
#	91695
#	104087
#	113980
#	124162
#	133497
#	142710
#	154212
#
# Disc length: 2284 seconds
#
# Revision: 2
# Processed by: cddbd v1.5.2PL0 Copyright (c) Steve Scherf et al.
# Submitted via: EZCDAudioConverter 7.0.6.1
#
DISCID=a908ea0d
DTITLE=Various Artist - Tom's Album
DYEAR=1991
DGENRE=
TTITLE0=DNA featuring Suzanne Vega - Rusted Pipe
TTITLE1=Suzanne Vega - Tom's Diner
TTITLE2=Peter Behrens - Dep De Dö Dep
TTITLE3=Nikki D. - Daddy's Little Girl
TTITLE4=Beth Watson - Waiting At The Border
TTITLE5=Michigan and Smiley - Tom's Diner
TTITLE6=N.D.A. Project - Tom's Diner
TTITLE7=Marilyn E. Whitelaw/Mark Davis - Jeannie's Diner
TTITLE8=After One - Tom's Diner Rap
TTITLE9=Mats Höjer - Tages Kafé
TTITLE10=Bingo Hand Job - Tom's ?
TTITLE11=Suzanne Vega - Tom's Diner Reprise
TTITLE12=DNA featuring Suzanne Vega - Tom's Diner
EXTD=
EXTT0=
EXTT1=
EXTT2=
EXTT3=
EXTT4=
EXTT5=
EXTT6=
EXTT7=
EXTT8=
EXTT9=
EXTT10=
EXTT11=
EXTT12=
PLAYORDER=
